<?xml version="1.0" encoding="UTF-8" standalone="no"?>
<svg version="1.1" x="0" y="0" width="560" height="200" xmlns="http://www.w3.org/2000/svg">
  <g stroke="#aaaacc" fill="#555588" stroke-width="0.3" transform="scale(20)">
    <path d="m 19.85,1.51c-0.18,0-0.36,0.038-0.537,0.1-0.231,0.079-0.445,0.209-0.643,0.389-0.193,0.178-0.358,0.4-0.496,0.666-0.140912,0.2722793-0.224714,0.5305001-0.248047,0.777-0.0208,0.248 0.0051,0.486 0.0742,0.713 0.069,0.227 0.168,0.448 0.295,0.66 0.129,0.209 0.272,0.417806 0.429687,0.626954 0.132802,0.177555 0.233297,0.337511 0.302735,0.478515 0.07097,0.138045 0.115799,0.26308 0.132812,0.376953 0.01702,0.113876 0.0087,0.226933-0.02344,0.337891-0.02808,0.109295-0.07476,0.228207-0.140625,0.355469-0.07965,0.153898-0.173522,0.278865-0.28125,0.376953-0.10621,0.0951-0.224848,0.152208-0.357422,0.169922-0.132579,0.01767-0.278291,-0.01431-0.435547,-0.0957-0.132296,-0.06847-0.241246,-0.149454-0.326172,-0.242188-0.08339,-0.0957-0.139455,-0.205492-0.169922,-0.330078-0.02895,-0.12755-0.02634,-0.272161 0.0098,-0.433594 0.0614,-0.278322 0.221541,-0.552066 0.242187,-0.603515 V 4.71875H15.720706 V 2.7050783 h 2.216797 V 1.5859376H15.720706 15.447268 14.589847 V 8.863281 h 1.130859 V 5.833985 h 0.726562 c-0.06699,0.188233-0.112986,0.369599-0.134765,0.544921-0.03745,0.310826-0.01644,0.595963 0.06445,0.855469 0.0809,0.259506 0.209528,0.489935 0.384766,0.689453 0.179266,0.197851 0.392096,0.359719 0.636718,0.486328 0.254606,0.131782 0.50579,0.210015 0.75586,0.234375 0.254097,0.0227 0.496151,-0.0073 0.724609,-0.08789 0.228457,-0.08063 0.438175,-0.209715 0.628906,-0.388672 C 19.698546,7.989011 19.862139,7.766361 20,7.5 c 0.139366,-0.269324 0.232917,-0.525157 0.279297,-0.767578 0.04634,-0.24243 0.0474,-0.479316 0.0059,-0.710937 C 20.247707,5.788193 20.169645,5.555586 20.048869,5.324219 19.929624,5.089892 19.772068,4.852323 19.578166,4.609375 19.473046,4.476 19.381,4.348 19.303,4.22461 19.228,4.1 19.172,3.979 19.133,3.865 c-0.039,-0.114-0.05764,-0.228-0.05664,-0.3398442 0.005,-0.1137096 0.03554,-0.2254281 0.09375,-0.3378906 0.08119,-0.1568566 0.176881,-0.2840632 0.287109,-0.3808594 0.111762,-0.099753 0.236439,-0.1583811 0.373047,-0.1777344 0.13814,-0.022311 0.284692,0.00584 0.439453,0.085937 0.164744,0.085268 0.277471,0.1978028 0.337891,0.3378906 0.0604,0.1400864 0.07518,0.300071 0.04297,0.4785157-0.0282,0.1767754-0.09422,0.3613103-0.195312,0.5566413 0,0 0.906404,0.466822 1.232242,0.550615 0.0078,0.109375 0.02948,4.224775 0.02948,4.224775 h 1.095703 V 6.304688 l-0.07227,-2.324219 1.28711,4.882812 h 0.84375 l 1.292968,-5.1679688-0.080,2.6094 v 2.559 h 1.098 V 1.586 h-0.49-0.463-0.451L24.453,6.783 23.117,1.586H22.666 22.109 21.7168 V 2.8945314 C 21.68,2.749 21.627,2.608 21.557,2.475 21.395,2.17 21.139,1.926 20.787,1.744 20.537,1.615 20.287,1.539 20.035,1.518 c-0.062,-0.005-0.124,-0.00723-0.186,-0.006 z"/>
    <path d="m 12.336,3.355 c-0.25,0-0.475,0.0448-0.678,0.135-0.202,0.09-0.376,0.215-0.52,0.375-0.143,0.157-0.252,0.336-0.328125,0.539062-0.07589,0.203281-0.113281,0.417923-0.113,0.645 h 1.084 c 0,-0.13663 0.01815,-0.253541 0.05469,-0.354 0.03935,-0.103 0.097,-0.183 0.176,-0.236 0.0787,-0.05665 0.17578,-0.08399 0.291017,-0.08399 0.106805,0 0.196453,0.02423 0.26953,0.07422 0.07308,0.04665 0.129477,0.121303 0.166016,0.224609 0.03935,0.103308 0.05859,0.243301 0.05859,0.419923 V 5.56445 h-0.367188 c-0.306362,0-0.573117,0.04226-0.800781,0.128905-0.227664,0.08331-0.415488,0.204703-0.564453,0.361329-0.146155,0.156626-0.258096,0.34451-0.333985,0.564453-0.07589,0.219943-0.113281,0.466972-0.113281,0.740234 0,0.333248 0.05664,0.619438 0.171876,0.859375 0.115236,0.236606 0.273098,0.418862 0.472655,0.548828 0.202368,0.129966 0.429539,0.195313 0.679688,0.195313 0.177072,0 0.329694,-0.03606 0.458984,-0.109376 0.132101,-0.07665 0.24209,-0.174952 0.332031,-0.294921 0.04018,-0.05197 0.07748,-0.105055 0.111329,-0.160156 0.02475,0.183744 0.05689,0.339705 0.09961,0.464844 h 1.097656 v-0.08399 c-0.0534,-0.136631-0.09494,-0.30281-0.123047,-0.496094-0.0253,-0.193282-0.03711,-0.428482-0.03711,-0.705078 v-2.46875 c 0,-0.416559-0.06821,-0.753165-0.203125,-1.009765 C 13.545636,3.839677 13.362194,3.6517929 13.128909,3.5351564 12.898435,3.4151875 12.63387,3.3554689 12.335941,3.3554689 Z m 0.148437,3.0078121 h 0.3125 v 1.164063 c-0.0043,0.0088-0.0088,0.01651-0.01367,0.02539-0.0534,0.09997-0.133429,0.188404-0.240235,0.261718-0.103994,0.07332-0.22775,0.109376-0.371093,0.109376-0.101184,0-0.185593,-0.02366-0.25586,-0.07031-0.07026,-0.04999-0.124,-0.124-0.16,-0.220702-0.03654,-0.1-0.05469,-0.225039-0.05469,-0.375 0,-0.129967 0.0151,-0.249403 0.04883,-0.359376 0.03373,-0.109971 0.08489,-0.205176 0.152343,-0.285156 0.06746,-0.07998 0.148578,-0.14027 0.244141,-0.183593 0.09837,-0.04332 0.211411,-0.06641 0.33789,-0.06641 z"/>
    <path d="M 6.863,3.455 8.145,8.863H8.461 8.828 9.145L10.422,3.455H9.295L8.65,7.041 7.992,3.455Z"/>
    <path d="m 5.0293,3.356 c-0.25,0-0.475,0.045-0.678,0.135C4.149,3.58 3.975,3.705 3.832,3.865 3.689,4.022 3.58,4.201 3.504,4.404 3.428,4.608 3.391,4.822 3.391,5.049H4.473c0,-0.137 0.02,-0.254 0.057,-0.354 0.03935,-0.103 0.097,-0.183 0.176,-0.236328 0.0787,-0.05665 0.175779,-0.08399 0.291015,-0.08399 0.106805,0 0.196455,0.02423 0.269532,0.07422 0.07308,0.04665 0.127523,0.121303 0.164062,0.224609 0.03935,0.103308 0.06055,0.243301 0.06055,0.419923 V 5.564454H5.12305 c-0.306363,0-0.573118,0.04226-0.800782,0.128905 C 4.094604,5.776669 3.90678,5.898062 3.757815,6.054688 3.6116608,6.211314 3.4997189,6.399198 3.4238307,6.619141 3.3479427,6.839084 3.3105498,7.086113 3.3105498,7.359375 c 0,0.333248 0.056637,0.619438 0.1718752,0.859375 0.1152361,0.236606 0.2730987,0.418862 0.472656,0.548828 0.202368,0.129966 0.429538,0.195313 0.679687,0.195313 0.177072,0 0.329694,-0.03606 0.458985,-0.109376 0.1321,-0.07665 0.242089,-0.174952 0.332031,-0.294921 0.04018,-0.05197 0.07748,-0.105055 0.111328,-0.160156 0.02475,0.183744 0.05689,0.339705 0.09961,0.464844H6.732426 V 8.779292 C 6.679026,8.642661 6.639436,8.476482 6.611332,8.283198 6.586032,8.089916 6.572272,7.854716 6.572272,7.57812 V 5.10937 c 0,-0.416559-0.06626,-0.753165-0.201171,-1.009765 C 6.238995,3.839677 6.055553,3.6517929 5.822268,3.5351564 5.591794,3.4151875 5.32723,3.3554689 5.0293,3.3554689 Z M 5.177737,6.363281 h 0.3125 v 1.164063 c-0.0043,0.0088-0.0088,0.01651-0.01367,0.02539-0.0534,0.09997-0.133429,0.188404-0.240234,0.261718-0.103995,0.07332-0.227751,0.109376-0.371094,0.109376-0.101184,0-0.185593,-0.02366-0.25586,-0.07031-0.07026,-0.04999-0.123617,-0.12406-0.160155,-0.220702-0.03654,-0.09997-0.05664,-0.225039-0.05664,-0.375 0,-0.129967 0.01705,-0.249403 0.05078,-0.359376 0.03373,-0.109971 0.08489,-0.205176 0.152344,-0.285156 0.06746,-0.08 0.149,-0.14 0.244,-0.184 0.098,-0.04332 0.211411,-0.06641 0.337891,-0.06641 z"/>
    <circle cx="2.17" cy="1.4"  r="0.7"/>
    <path d="M 1.566,2.665H2.751V7.981q0,0.537-0.165,0.904-0.165,0.372-0.473,0.56-0.308,0.193-0.757,0.193-0.142,0-0.285,-0.01836 Q 0.9328137,9.601864 0.790502,9.560544 l 0.00459,-0.964046 q 0.091814,0.01836 0.179,0.02754 0.082633,0.01377 0.1606745,0.01377 0.1423116,0 0.2341256,-0.06886 0.096405,-0.06886 0.147,-0.216 0.051,-0.142 0.051,-0.372z"/>
  </g>
</svg>
